<?xml version="1.0" encoding="iso-8859-1"?>
<!-- Uploaded to: SVG Repo, www.svgrepo.com, Generator: SVG Repo Mixer Tools -->
<svg version="1.1" id="Layer_1" xmlns="http://www.w3.org/2000/svg" xmlns:xlink="http://www.w3.org/1999/xlink" 
	 viewBox="0 0 512 512" xml:space="preserve">
<path style="fill:#29ABE2;" d="M8.546,79.426v352.748h495.104V79.426C503.649,79.426,8.546,79.426,8.546,79.426z M479.574,408.099
	H31.574V104.547h448.001V408.099z"/>
<rect x="31.865" y="103.909" style="fill:#CAD6DD;" width="448.273" height="304.18"/>
<polygon style="fill:#BDCCD4;" points="280.014,408.091 31.865,408.091 31.865,103.908 416.096,103.908 "/>
<polygon style="fill:#FF1D25;" points="268.666,379.868 236.649,187.712 192.538,290.614 166.674,239.328 147.887,264.697 
	55.648,264.697 55.648,248.996 139.977,248.996 169.22,209.507 191.384,253.456 243.33,132.277 275.352,324.458 319.509,221.523 
	345.449,273.631 364.173,248.996 456.546,248.996 456.546,264.697 371.961,264.697 342.657,303.254 320.568,258.881 "/>
<polygon style="fill:#0C6D95;" points="31.574,408.099 31.574,104.547 397.176,104.547 408.091,79.426 8.546,79.426 8.546,432.174 
	247.995,432.174 258.911,408.099 "/>
<path d="M512,439.957H0V72.043h512V439.957z M15.701,424.256h480.598V87.744H15.701V424.256z"/>
<path d="M487.948,416.473H23.2v-320.3h464.748V416.473z M38.901,400.772h433.347V111.875H38.901V400.772z"/>
<rect x="48.317" y="239.576" width="15.701" height="32.449"/>
<rect x="448.168" y="239.576" width="15.701" height="32.449"/>
<g>
	<rect x="439.794" y="368.324" style="fill:#FFFFFF;" width="16.748" height="15.701"/>
	<rect x="416.766" y="368.324" style="fill:#FFFFFF;" width="15.701" height="15.701"/>
	<rect x="391.645" y="368.324" style="fill:#FFFFFF;" width="15.701" height="15.701"/>
	<rect x="367.57" y="368.324" style="fill:#FFFFFF;" width="16.748" height="15.701"/>
</g>
<rect x="304.766" y="128.622" style="fill:#FF1D25;" width="79.552" height="15.701"/>
<rect x="391.645" y="128.622" style="fill:#FFFFFF;" width="15.701" height="15.701"/>
<rect x="416.766" y="128.622" style="fill:#FF1D25;" width="15.701" height="15.701"/>
<rect x="439.794" y="128.622" style="fill:#FFFFFF;" width="16.748" height="15.701"/>
<rect x="55.644" y="368.324" style="fill:#FF1D25;" width="15.701" height="15.701"/>
<g>
	<rect x="177.065" y="368.324" style="fill:#FFFFFF;" width="15.701" height="15.701"/>
	<rect x="79.719" y="344.249" style="fill:#FFFFFF;" width="15.701" height="39.776"/>
</g>
<rect x="104.841" y="359.95" style="fill:#FF1D25;" width="15.701" height="24.075"/>
<rect x="127.869" y="328.548" style="fill:#FFFFFF;" width="15.701" height="55.477"/>
<rect x="151.943" y="351.576" style="fill:#FF1D25;" width="15.701" height="32.449"/>
<rect x="55.644" y="128.622" style="fill:#FFFFFF;" width="87.925" height="15.701"/>
</svg>